<svg width="26" height="26" viewBox="0 0 26 26" fill="none" xmlns="http://www.w3.org/2000/svg">
<path d="M4.33331 6.49999C4.33331 6.21267 4.44745 5.93712 4.65061 5.73396C4.85378 5.53079 5.12933 5.41666 5.41665 5.41666H20.5833C20.8706 5.41666 21.1462 5.53079 21.3493 5.73396C21.5525 5.93712 21.6666 6.21267 21.6666 6.49999C21.6666 6.78731 21.5525 7.06286 21.3493 7.26602C21.1462 7.46919 20.8706 7.58332 20.5833 7.58332H5.41665C5.12933 7.58332 4.85378 7.46919 4.65061 7.26602C4.44745 7.06286 4.33331 6.78731 4.33331 6.49999ZM4.33331 13C4.33331 12.7127 4.44745 12.4371 4.65061 12.234C4.85378 12.0308 5.12933 11.9167 5.41665 11.9167H20.5833C20.8706 11.9167 21.1462 12.0308 21.3493 12.234C21.5525 12.4371 21.6666 12.7127 21.6666 13C21.6666 13.2873 21.5525 13.5629 21.3493 13.766C21.1462 13.9692 20.8706 14.0833 20.5833 14.0833H5.41665C5.12933 14.0833 4.85378 13.9692 4.65061 13.766C4.44745 13.5629 4.33331 13.2873 4.33331 13ZM5.41665 18.4167C5.12933 18.4167 4.85378 18.5308 4.65061 18.734C4.44745 18.9371 4.33331 19.2127 4.33331 19.5C4.33331 19.7873 4.44745 20.0629 4.65061 20.266C4.85378 20.4692 5.12933 20.5833 5.41665 20.5833H20.5833C20.8706 20.5833 21.1462 20.4692 21.3493 20.266C21.5525 20.0629 21.6666 19.7873 21.6666 19.5C21.6666 19.2127 21.5525 18.9371 21.3493 18.734C21.1462 18.5308 20.8706 18.4167 20.5833 18.4167H5.41665Z" fill="black"/>
</svg>
