<svg width="24" height="24" viewBox="0 0 24 24" fill="none" xmlns="http://www.w3.org/2000/svg">
<path d="M10 10H14M10 10V14M10 10L6.5 6.5M14 10V14M14 10L17.5 6.5M14 14H10M14 14L17.5 17.5M10 14L6.5 17.5M9.96 6C9.86803 5.35657 9.59872 4.75145 9.18223 4.25246C8.76573 3.75346 8.21852 3.3803 7.60189 3.17478C6.98527 2.96926 6.3236 2.93951 5.69102 3.08885C5.05843 3.23819 4.47993 3.56074 4.02034 4.02034C3.56074 4.47993 3.23819 5.05843 3.08885 5.69102C2.93951 6.3236 2.96926 6.98527 3.17478 7.60189C3.3803 8.21852 3.75346 8.76573 4.25246 9.18223C4.75145 9.59872 5.35657 9.86803 6 9.96M18 9.96C18.6434 9.86803 19.2485 9.59872 19.7475 9.18223C20.2465 8.76573 20.6197 8.21852 20.8252 7.60189C21.0307 6.98527 21.0605 6.3236 20.9111 5.69102C20.7618 5.05843 20.4393 4.47993 19.9797 4.02034C19.5201 3.56074 18.9416 3.23819 18.309 3.08885C17.6764 2.93951 17.0147 2.96926 16.3981 3.17478C15.7815 3.3803 15.2343 3.75346 14.8178 4.25246C14.4013 4.75145 14.132 5.35657 14.04 6M14.04 18C14.132 18.6434 14.4013 19.2485 14.8178 19.7475C15.2343 20.2465 15.7815 20.6197 16.3981 20.8252C17.0147 21.0307 17.6764 21.0605 18.309 20.9111C18.9416 20.7618 19.5201 20.4393 19.9797 19.9797C20.4393 19.5201 20.7618 18.9416 20.9111 18.309C21.0605 17.6764 21.0307 17.0147 20.8252 16.3981C20.6197 15.7815 20.2465 15.2343 19.7475 14.8178C19.2485 14.4013 18.6434 14.132 18 14.04M6 14.04C5.35657 14.132 4.75145 14.4013 4.25246 14.8178C3.75346 15.2343 3.3803 15.7815 3.17478 16.3981C2.96926 17.0147 2.93951 17.6764 3.08885 18.309C3.23819 18.9416 3.56074 19.5201 4.02034 19.9797C4.47993 20.4393 5.05843 20.7618 5.69102 20.9111C6.3236 21.0605 6.98527 21.0307 7.60189 20.8252C8.21852 20.6197 8.76573 20.2465 9.18223 19.7475C9.59872 19.2485 9.86803 18.6434 9.96 18" stroke="#787878" stroke-width="2" stroke-linecap="round" stroke-linejoin="round"/>
</svg>
