<svg width="1142" height="4758" viewBox="0 0 1142 4758" fill="none" xmlns="http://www.w3.org/2000/svg">
<path fill-rule="evenodd" clip-rule="evenodd" d="M286 3.32749e-05L214 198C143 397 3.46631e-05 793 143 1190C286 1586 714 1983 809 2379C904 2776 666 3172 476 3569C286 3965 143 4362 72.0002 4560L0.000207979 4758L1142 4758L1142 4560C1142 4362 1142 3965 1142 3569C1142 3172 1142 2776 1142 2379C1142 1983 1142 1586 1142 1190C1142 793 1142 397 1142 198L1142 -4.14204e-06L286 3.32749e-05Z" fill="#616161" fill-opacity="0.8"/>
</svg>
